{"title":"The Amazing Spider-Man 2 (2014) 720p WEB-DL x264 - N3kr4","uid":10634245,"size":1657059212,"categoryP":"video","categoryS":"hd___movies","magnet":"?xt=urn:btih:e09411dbb98ae2aedb8f8e002105a6f0056da0c7&amp;dn=The+Amazing+Spider-Man+2+%282014%29+720p+WEB-DL+x264+-+N3kr4&amp;tr=udp%3A%2F%2Ftracker.openbittorrent.com%3A80&amp;tr=udp%3A%2F%2Fopen.demonii.com%3A1337&amp;tr=udp%3A%2F%2Ftracker.coppersurfer.tk%3A6969&amp;tr=udp%3A%2F%2Fexodus.desync.com%3A6969","seeders":1,"leechers":0,"uploader":"Falcon.G13","files":2,"time":1406366796,"description":" &lt;a href=&quot;http://i.imgur.com/doJGbDe.jpg&quot; rel=&quot;nofollow&quot; target=&quot;_NEW&quot;&gt;http://i.imgur.com/doJGbDe.jpg&lt;/a&gt; &lt;a href=&quot;\nhttp://i.imgur.com/HO2u4Rt.jpg&quot; rel=&quot;nofollow&quot; target=&quot;_NEW&quot;&gt;\nhttp://i.imgur.com/HO2u4Rt.jpg&lt;/a&gt; &lt;a href=&quot;\nhttp://i.imgur.com/HO2u4Rt.jpg&quot; rel=&quot;nofollow&quot; target=&quot;_NEW&quot;&gt;\nhttp://i.imgur.com/HO2u4Rt.jpg&lt;/a&gt; &lt;a href=&quot;\nhttp://i.imgur.com/0bPlC9T.jpg&quot; rel=&quot;nofollow&quot; target=&quot;_NEW&quot;&gt;\nhttp://i.imgur.com/0bPlC9T.jpg&lt;/a&gt; &lt;a href=&quot;\nhttp://i.imgur.com/kHZWjWA.jpg&quot; rel=&quot;nofollow&quot; target=&quot;_NEW&quot;&gt;\nhttp://i.imgur.com/kHZWjWA.jpg&lt;/a&gt; &lt;a href=&quot;\nhttp://i.imgur.com/eV21yCv.jpg&quot; rel=&quot;nofollow&quot; target=&quot;_NEW&quot;&gt;\nhttp://i.imgur.com/eV21yCv.jpg&lt;/a&gt; &lt;a href=&quot;\nhttp://i.imgur.com/nLDRwH2.jpg&quot; rel=&quot;nofollow&quot; target=&quot;_NEW&quot;&gt;\nhttp://i.imgur.com/nLDRwH2.jpg&lt;/a&gt; &lt;a href=&quot;\nhttp://i.imgur.com/MeraHFU.jpg&quot; rel=&quot;nofollow&quot; target=&quot;_NEW&quot;&gt;\nhttp://i.imgur.com/MeraHFU.jpg&lt;/a&gt; &lt;a href=&quot;\nhttp://i.imgur.com/9k3gZI9.jpg&quot; rel=&quot;nofollow&quot; target=&quot;_NEW&quot;&gt;\nhttp://i.imgur.com/9k3gZI9.jpg&lt;/a&gt;\n\nGeneral\nComplete name : The Amazing Spider-Man 2 (2014) 720p WEB-DL x264 - N3kr4.mp4\nFormat : MPEG-4\nFormat profile : Base Media\nCodec ID : isom\nFile size : 1.54 GiB\nDuration : 2h 21mn\nOverall bit rate : 1 561 Kbps\nWriting application : Lavf55.7.100\n\nVideo\nID : 1\nFormat : AVC\nFormat/Info : Advanced Video Codec\nFormat profile : &lt;a class=&quot;__cf_email__&quot; href=&quot;/cdn-cgi/l/email-protection&quot; data-cfemail=&quot;99d4f8f0f7d9d5adb7a9&quot;&gt;[email&amp;#160;protected]&lt;/a&gt;&lt;script cf-hash='f9e31' type=&quot;text/javascript&quot;&gt;\n/* &lt;![CDATA[ */!function(){try{var t=&quot;currentScript&quot;in document?document.currentScript:function(){for(var t=document.getElementsByTagName(&quot;script&quot;),e=t.length;e--;)if(t[e].getAttribute(&quot;cf-hash&quot;))return t[e]}();if(t&amp;&amp;t.previousSibling){var e,r,n,i,c=t.previousSibling,a=c.getAttribute(&quot;data-cfemail&quot;);if(a){for(e=&quot;&quot;,r=parseInt(a.substr(0,2),16),n=2;a.length-n;n+=2)i=parseInt(a.substr(n,2),16)^r,e+=String.fromCharCode(i);e=document.createTextNode(e),c.parentNode.replaceChild(e,c)}}}catch(u){}}();/* ]]&gt; */&lt;/script&gt;\nFormat settings, CABAC : Yes\nFormat settings, ReFrames : 3 frames\nCodec ID : avc1\nCodec ID/Info : Advanced Video Coding\nDuration : 2h 21mn\nBit rate : 916 Kbps\nWidth : 1 280 pixels\nHeight : 536 pixels\nDisplay aspect ratio : 2.40:1\nFrame rate mode : Constant\nFrame rate : 23.976 fps\nColor space : YUV\nChroma subsampling : 4:2:0\nBit depth : 8 bits\nScan type : Progressive\nBits/(Pixel*Frame) : 0.056\nStream size : 927 MiB (59%)\nLanguage : English\n\nAudio\nID : 2\nFormat : AC-3\nFormat/Info : Audio Coding 3\nMode extension : CM (complete main)\nFormat settings, Endianness : Big\nCodec ID : ac-3\nDuration : 2h 21mn\nBit rate mode : Constant\nBit rate : 640 Kbps\nChannel(s) : 6 channels\nChannel positions : Front: L C R, Side: L R, LFE\nSampling rate : 48.0 KHz\nBit depth : 16 bits\nCompression mode : Lossy\nStream size : 648 MiB (41%)\nLanguage : English","torrent":{"xt":"urn:btih:e09411dbb98ae2aedb8f8e002105a6f0056da0c7","amp;dn":"The+Amazing+Spider-Man+2+%282014%29+720p+WEB-DL+x264+-+N3kr4","amp;tr":["udp%3A%2F%2Ftracker.openbittorrent.com%3A80","udp%3A%2F%2Fopen.demonii.com%3A1337","udp%3A%2F%2Ftracker.coppersurfer.tk%3A6969","udp%3A%2F%2Fexodus.desync.com%3A6969"],"infoHash":"e09411dbb98ae2aedb8f8e002105a6f0056da0c7","infoHashBuffer":{"type":"Buffer","data":[224,148,17,219,185,138,226,174,219,143,142,0,33,5,166,240,5,109,160,199]},"announce":[],"urlList":[]}}